<?xml version="1.0" ?><svg xmlns="http://www.w3.org/2000/svg" width="24" height="24" viewBox="0 0 24 24" fill="none"><path d="M15 5L15 6L17 6L17 5L15 5ZM17 4C17 3.44772 16.5523 3 16 3C15.4477 3 15 3.44772 15 4L17 4ZM17 5L17 4L15 4L15 5L17 5Z" fill="black"/><path d="M7 5L7 6L9 6L9 5L7 5ZM9 4C9 3.44772 8.55228 3 8 3C7.44772 3 7 3.44772 7 4L9 4ZM9 5L9 4L7 4L7 5L9 5Z" fill="black"/><path fill-rule="evenodd" clip-rule="evenodd" d="M5.98698 5H18.013C19.6627 5 21 6.29322 21 7.8885V18.1115C21 19.7068 19.6627 21 18.013 21H5.98698C4.33732 21 3 19.7068 3 18.1115V7.8885C3 6.29322 4.33732 5 5.98698 5ZM6 10C5.44772 10 5 10.4477 5 11V18C5 18.5523 5.44772 19 6 19H18C18.5523 19 19 18.5523 19 18V11C19 10.4477 18.5523 10 18 10H6Z" fill="black"/></svg>